<?xml version="1.0" encoding="utf-8"?>
<!-- Generator: Adobe Illustrator 23.0.1, SVG Export Plug-In . SVG Version: 6.00 Build 0)  -->
<svg version="1.1" id="Layer_1" xmlns="http://www.w3.org/2000/svg" xmlns:xlink="http://www.w3.org/1999/xlink" x="0px" y="0px"
	 viewBox="0 0 170 170" style="enable-background:new 0 0 170 170;" xml:space="preserve">
<style type="text/css">
	.st0{fill:none;}
	.st1{fill:none;stroke:#007EC3;stroke-width:4;stroke-miterlimit:10;}
	.st2{fill:none;stroke:#007EC3;stroke-width:3;stroke-linecap:round;stroke-miterlimit:10;}
	.st3{fill:none;stroke:#007EC3;stroke-miterlimit:10;}
	.st4{fill:none;stroke:#007EC3;stroke-width:3;stroke-miterlimit:10;}
	.st5{enable-background:new    ;}
	.st6{fill:#007EC3;}
</style>
<g>
	<g>
		<path class="st0" d="M54,156.5"/>
		<path class="st1" d="M67.3,82"/>
		<path class="st1" d="M144.5,82"/>
		<path class="st1" d="M144.9,82.9c-0.1-0.6-0.2-0.9-0.3-0.9"/>
		<g>
			<g>
				<g>
					<path class="st1" d="M144.5,82h-6c-0.6,0-1-0.4-1-1l-0.3-15.7c0-0.5-0.4-1.3-0.8-1.6l-20.7-13.9c-0.5-0.3-1.2-0.4-1.7-0.1
						l-3.2,1.5c-0.5,0.2-1.3,0.1-1.7-0.2l-2.5-2c-0.4-0.3-1.2-0.5-1.7-0.3l-10.2,3.7c-0.5,0.2-0.9,0.8-0.9,1.3V57c0,0.6-0.1,1-0.3,1
						s-0.3,0.5-0.3,1v0.4c0,0.5,0.2,1,0.4,1s0.4,0.5,0.4,1v2.7c0,0.6-0.2,1-0.5,1S93,65.3,93,65.6s-0.4,0.3-0.9,0.1L62.4,53.6
						c-0.5-0.2-0.9-0.8-0.9-1.4l0.1-2.9c0-0.5-0.4-1.1-0.9-1.3l-4.6-1.5c-0.5-0.2-0.9-0.8-0.9-1.3l0.1-18.4c0-0.5-0.1-1-0.3-1
						s-0.3-0.2-0.3-0.4s-0.5-0.4-1-0.4h-0.6c-0.5,0-1-0.3-1-0.6c0-0.3-0.3-0.6-0.6-0.6s-0.6-0.2-0.6-0.4c0-0.2-0.4-0.4-1-0.4h-1.8
						c-0.5,0-1-0.2-1-0.4c0-0.2-0.4-0.5-1-0.5l-2.4-0.2c-0.5,0-1-0.5-1-1.1V9c0-0.5-0.1-1-0.3-1s-0.3,0.5-0.3,1v12.1
						c0,0.6-0.1,1-0.3,1s-0.3,0.5-0.3,1v0.4c0,0.5-0.5,1-1,1h-1.2c-0.5,0-1.2,0.4-1.4,0.9l-1,2.6c-0.2,0.5-0.8,1.1-1.3,1.2l-1,0.3
						c-0.5,0.2-1,0.7-1,1.3v14.8c0,0.6-0.4,1.3-0.8,1.6l-6.9,5.3C25.4,52.7,25,53.4,25,54v11.2c0,0.5,0.4,1.2,0.9,1.4l6.7,3
						c0.5,0.2,0.9,0.9,0.9,1.4l-1,85c0,0.5,0.4,1,1,1c0,0,13.8,0.2,20.6,0"/>
				</g>
				<g>
					<path class="st2" d="M54.1,141.5l-1-63c0-0.5,0.4-0.8,0.9-0.6l35.5,13.7c0.5,0.2,1.4,0.3,1.9,0.1l12.5-3.1
						c0.5-0.1,1.2-0.6,1.5-1.1l0.5-0.9c0.3-0.5,0.9-1,1.5-1.1l3.6-0.8c0.5-0.1,1.4,0,1.9,0.3l16.7,9"/>
				</g>
				<path class="st3" d="M45,148c-0.6-12.3,0.2-43.1-0.6-55.4c0-8.6-0.4-16.9,0.2-25.4"/>
				<polyline class="st3" points="52.8,45.7 41.3,42.8 39.3,45.2 36.6,44.3 35.1,45.7 				"/>
				<path class="st4" d="M52.8,68.1"/>
				<polyline class="st3" points="27.5,62.5 36.9,54.6 39,54.6 41.6,52.8 60.1,59 52.8,64.3 				"/>
				<polyline class="st3" points="35.1,68.1 41.9,62.5 46.6,62.5 51.6,64 				"/>
				<line class="st3" x1="52.8" y1="68.1" x2="104.8" y2="88.4"/>
				<line class="st3" x1="52.8" y1="66.6" x2="52.8" y2="74.6"/>
				<polyline class="st3" points="95.4,67.2 102.5,69.6 114.5,67.2 134.5,78.4 				"/>
				<line class="st3" x1="109.5" y1="53" x2="109.5" y2="61.2"/>
				<line class="st3" x1="105.7" y1="53" x2="105.7" y2="64.4"/>
				<line class="st3" x1="115.1" y1="52.1" x2="115.1" y2="63"/>
				<path class="st4" d="M107.8,112.8"/>
				<polyline class="st3" points="112.5,82.2 115.1,76.3 132.5,86 				"/>
				<line class="st3" x1="115.1" y1="76.3" x2="103.4" y2="80.2"/>
				<line class="st3" x1="62.8" y1="64.6" x2="99" y2="79.3"/>
				<line class="st3" x1="43.4" y1="40.5" x2="43.4" y2="24.6"/>
				<line class="st3" x1="38.7" y1="28.4" x2="38.7" y2="42.8"/>
				<path class="st4" d="M60.1,54.6"/>
				<path class="st4" d="M101.6,36.9"/>
				<path class="st4" d="M32.8,20.2"/>
			</g>
			<path class="st1" d="M53.5,157h91c0.2,0,0.5-1.3,0.5-2.8V84.8c0-0.7,0-1.4-0.1-1.9"/>
		</g>
	</g>
	<g class="st5">
		<path class="st6" d="M90.1,110.6c-0.6-1.6-1.3-2.9-2.1-3.8c-0.8-0.9-1.8-1.7-3.1-2.2c-1.3-0.5-3-1-5.3-1.3l1.2-6.6
			c4.1,0.5,7.4,1.4,9.9,2.7c2.4,1.3,4.4,3.1,5.8,5.6c1.4,2.5,2.7,5.9,3.8,10.3c1.1,4.6,2.2,8.4,3.2,11.6c1,3.2,2.1,5.9,3.3,8.2
			c1.2,2.3,2.5,4.4,4,6.2l-9.6,3c-1.4-2.1-2.7-4.4-3.7-6.8s-1.9-5.2-2.7-8.4s-1.5-7-2.2-11.6l-6.9,26.8l-9.6-2.2L87,110.6H90.1z"/>
	</g>
</g>
</svg>